# xmcd
#
# Track frame offsets:
#	150
#	13706
#	30203
#	40525
#	57376
#	76874
#	92516
#	107117
#	121825
#	139228
#	157456
#	173378
#	179756
#	202816
#	222988
#	234971
#	251344
#	261716
#	278344
#	289947
#
# Disc length: 4140 seconds
#
# Revision: 0
# Processed by: cddbd v1.5.1PL0 Copyright (c) Steve Scherf et al.
# Submitted via: EasyCDDAExtractor 7.7.1.2
#
DISCID=0f102a14
DTITLE=almir sater - sucessos de ouro
DYEAR=2002
DGENRE=country
TTITLE0=tocando em frente
TTITLE1=um violeiro toca
TTITLE2=shalana
TTITLE3=mes de maio
TTITLE4=rio de lagrimas
TTITLE5=pantanal
TTITLE6=trem do pantanal
TTITLE7=varandas
TTITLE8=vaso quebrado
TTITLE9=romaria
TTITLE10=comitiva esperança
TTITLE11=cabelo louro
TTITLE12=cavaleiro da lua
TTITLE13=caminhos me levam
TTITLE14=razoes
TTITLE15=boeiro de nabileque
TTITLE16=ana raio e zé trovao
TTITLE17=boiada
TTITLE18=toque de viola
TTITLE19=canta viola
EXTD=
EXTT0=
EXTT1=
EXTT2=
EXTT3=
EXTT4=
EXTT5=
EXTT6=
EXTT7=
EXTT8=
EXTT9=
EXTT10=
EXTT11=
EXTT12=
EXTT13=
EXTT14=
EXTT15=
EXTT16=
EXTT17=
EXTT18=
EXTT19=
PLAYORDER=
